<svg xmlns="http://www.w3.org/2000/svg" viewBox="0 0 125.43 122.35"><defs><style>.cls-1{fill:#fefefe;}</style></defs><title>google+_1</title><g id="Layer_2" data-name="Layer 2"><g id="Layer_1-2" data-name="Layer 1"><path class="cls-1" d="M78,91.75c-.81-8.18-5.55-14.06-11.62-19.07-3.84-3.18-7.94-6.07-11.24-9.86C52,59.23,52,55.64,55.35,52.2c2.68-2.74,5.45-5.38,8.15-8.1a22.07,22.07,0,0,0,6.61-17.62c-.4-7.16-3.6-12.89-9.12-17.79,10-1,10-1,15.53-8.69C60.76.74,45.77-1,30.92,1.23a27.15,27.15,0,0,0-22.73,26c-.28,14.19,7.52,24,21.53,27,2.74.58,5.54.89,8.84,1.4-2.91,5.93-1.22,11.2,3.35,16.6-3.36,0-5.83-.19-8.26,0-9,.83-17.74,2.55-25.15,8.37C-2.14,89-4,107,9.79,115.37a60.08,60.08,0,0,0,9.82,4.84c8.22,3.15,16.77,1.82,25.2,2.07,7.93.23,15.09-2.35,21.55-6.72C74.72,109.89,79,102,78,91.75ZM31.22,45.53C22.5,39,18.79,24.31,23.16,14.29,26.84,5.85,36.78,3.12,44.47,8.67c8.4,6.07,11,15,11.65,24.34-.27,6.7-1.43,12.56-7.73,15.55S36.38,49.4,31.22,45.53ZM65.65,99c-1,7.23-5.44,11.9-12.11,14.6a38.58,38.58,0,0,1-14.14,2.54c-7.93,0-15.2-1.68-20.88-7.72-6.8-7.23-6.71-17.11.24-24.14,9.57-9.69,28.41-11,39.13-2.66C63.47,86,66.63,91.73,65.65,99Z"/><path class="cls-1" d="M92.24,18.06c8.6,0,8.6,0,8.6-8.58a37.54,37.54,0,0,0,0-4c-.29-2.66.44-3.94,3.48-3.79,2.62.13,4.72.16,4.13,3.66a8.88,8.88,0,0,0,0,1.5c0,11.2,0,11.42,11.49,11.09,4.34-.12,5.92.88,5.46,5.38-.26,2.48-1.06,3-3.29,3-3.16-.11-6.34.26-9.48,0s-4.05,1.08-3.89,4c.16,2.81-.27,5.66-.2,8.48s-.28,4.4-4,4.45c-4,.06-3.7-2-3.76-4.6-.28-12.26-.31-12.38-12.2-12.37-3.46,0-4.84-.53-4.86-4.52,0-4.36,2.36-3.84,5-3.77C89.9,18.09,91.07,18.06,92.24,18.06Z"/></g></g></svg>