<svg xmlns="http://www.w3.org/2000/svg" viewBox="0 0 155.42 20.57"><defs><style>.cls-1{fill:#fff;}.cls-2{fill:#ffaf00;}.cls-3{fill:#e1e1e1;}.cls-4{fill:none;stroke:#ed731b;stroke-miterlimit:10;stroke-width:5px;}</style></defs><title>logo</title><g id="Layer_2" data-name="Layer 2"><g id="Layer_1-2" data-name="Layer 1"><g id="Logo"><path class="cls-1" d="M39,7.18a1,1,0,0,1-.28.34.63.63,0,0,1-.37.1,1,1,0,0,1-.5-.17l-.64-.38a5.35,5.35,0,0,0-.88-.38,3.69,3.69,0,0,0-1.18-.17,3.53,3.53,0,0,0-1.08.15,2.27,2.27,0,0,0-.78.41,1.65,1.65,0,0,0-.47.63,2.09,2.09,0,0,0-.15.81,1.4,1.4,0,0,0,.31.94,2.62,2.62,0,0,0,.83.64,7.71,7.71,0,0,0,1.18.47l1.36.45a12.85,12.85,0,0,1,1.35.55,4.65,4.65,0,0,1,1.18.79,3.58,3.58,0,0,1,.83,1.17,4.08,4.08,0,0,1,.31,1.69,5.49,5.49,0,0,1-.37,2,4.67,4.67,0,0,1-1.08,1.64A5.07,5.07,0,0,1,36.87,20a6.38,6.38,0,0,1-2.35.4,7.58,7.58,0,0,1-1.5-.15,7.86,7.86,0,0,1-1.42-.42,7.54,7.54,0,0,1-1.27-.66,6.13,6.13,0,0,1-1.06-.86l.87-1.42a.93.93,0,0,1,.29-.26.73.73,0,0,1,.38-.1,1.05,1.05,0,0,1,.59.23q.32.23.76.5a6,6,0,0,0,1,.5,4,4,0,0,0,1.42.23,2.91,2.91,0,0,0,2-.6,2.16,2.16,0,0,0,.69-1.72,1.6,1.6,0,0,0-.31-1,2.52,2.52,0,0,0-.83-.67,6.17,6.17,0,0,0-1.18-.46l-1.34-.41a11.62,11.62,0,0,1-1.34-.53,4.36,4.36,0,0,1-1.18-.8,3.65,3.65,0,0,1-.83-1.24,4.73,4.73,0,0,1-.31-1.83,4.41,4.41,0,0,1,1.36-3.16,4.94,4.94,0,0,1,1.63-1,6,6,0,0,1,2.22-.39,7.44,7.44,0,0,1,2.6.44,5.87,5.87,0,0,1,2,1.23Z"/><path class="cls-1" d="M44.77,10.12a5.9,5.9,0,0,1,1.45-1,4.22,4.22,0,0,1,1.86-.39A4,4,0,0,1,49.73,9a3.24,3.24,0,0,1,1.2.88,3.88,3.88,0,0,1,.73,1.35A5.76,5.76,0,0,1,51.9,13v7.19H49.18V13a2.44,2.44,0,0,0-.47-1.6,1.78,1.78,0,0,0-1.44-.57,2.84,2.84,0,0,0-1.32.32,4.73,4.73,0,0,0-1.17.87v8.17H42V3.84h2.72Z"/><path class="cls-1" d="M64.21,8.91v11.3H62.55a.64.64,0,0,1-.68-.5l-.19-.9A6.09,6.09,0,0,1,60.15,20a4.22,4.22,0,0,1-2,.44,4,4,0,0,1-1.64-.31,3.28,3.28,0,0,1-1.2-.89,3.88,3.88,0,0,1-.73-1.36,5.76,5.76,0,0,1-.25-1.73V8.91h2.72v7.18a2.41,2.41,0,0,0,.48,1.6,1.78,1.78,0,0,0,1.44.57,2.88,2.88,0,0,0,1.32-.31,4.6,4.6,0,0,0,1.17-.87V8.91Z"/><path class="cls-1" d="M70.67,20.39a3,3,0,0,1-2.26-.83,3.21,3.21,0,0,1-.79-2.3V10.95H66.46a.53.53,0,0,1-.37-.14.56.56,0,0,1-.15-.43V9.29L67.75,9l.57-3.08a.6.6,0,0,1,.21-.34.62.62,0,0,1,.4-.12h1.41V9H75l.58-3.1a.56.56,0,0,1,.61-.46h1.4V9h3v1.94h-3v6.13a1.2,1.2,0,0,0,.26.83.91.91,0,0,0,.72.3,1.29,1.29,0,0,0,.42-.06l.3-.13.23-.13a.38.38,0,0,1,.2-.06.31.31,0,0,1,.2.06.91.91,0,0,1,.17.18l.82,1.32a4.11,4.11,0,0,1-1.37.75,5.08,5.08,0,0,1-1.6.25,3,3,0,0,1-2.27-.83,3.19,3.19,0,0,1-.79-2.3V10.95H70.34v6.13a1.22,1.22,0,0,0,.26.83.89.89,0,0,0,.71.3,1.28,1.28,0,0,0,.42-.06L72,18l.23-.13a.38.38,0,0,1,.2-.06.31.31,0,0,1,.2.06.94.94,0,0,1,.17.18l.82,1.32a4.12,4.12,0,0,1-1.37.75A5.08,5.08,0,0,1,70.67,20.39Z"/><path class="cls-1" d="M84.4,14.9a5.33,5.33,0,0,0,.31,1.5,3.06,3.06,0,0,0,.64,1,2.5,2.5,0,0,0,.94.62,3.43,3.43,0,0,0,1.21.2,3.73,3.73,0,0,0,1.14-.15,5.29,5.29,0,0,0,.84-.34l.63-.34a1.05,1.05,0,0,1,.52-.15.56.56,0,0,1,.51.25l.78,1a4.51,4.51,0,0,1-1,.89,5.67,5.67,0,0,1-1.17.57,6.4,6.4,0,0,1-1.25.3,8.93,8.93,0,0,1-1.23.09A6,6,0,0,1,85.06,20a4.89,4.89,0,0,1-1.76-1.16,5.43,5.43,0,0,1-1.18-1.89,7.34,7.34,0,0,1-.43-2.62,6.25,6.25,0,0,1,.37-2.18,5.23,5.23,0,0,1,1.07-1.77,5,5,0,0,1,1.71-1.2,5.63,5.63,0,0,1,2.27-.44,5.53,5.53,0,0,1,2,.34,4.3,4.3,0,0,1,1.55,1,4.61,4.61,0,0,1,1,1.61A6,6,0,0,1,92,13.86a1.77,1.77,0,0,1-.13.83.55.55,0,0,1-.51.21Zm5.19-1.64a3.29,3.29,0,0,0-.15-1,2.38,2.38,0,0,0-.45-.82,2.08,2.08,0,0,0-.75-.56,2.59,2.59,0,0,0-1.06-.2,2.52,2.52,0,0,0-1.86.67,3.3,3.3,0,0,0-.87,1.91Z"/><path class="cls-1" d="M96.64,10.87a4.87,4.87,0,0,1,1.26-1.59,2.68,2.68,0,0,1,1.72-.58,2.11,2.11,0,0,1,1.26.34l-.18,2a.53.53,0,0,1-.16.28.45.45,0,0,1-.28.08,3.23,3.23,0,0,1-.49-.06,3.8,3.8,0,0,0-.63-.06,2.27,2.27,0,0,0-.8.13,2,2,0,0,0-.63.38,2.61,2.61,0,0,0-.5.6,5.82,5.82,0,0,0-.4.8v7H94.07V8.91h1.6a.88.88,0,0,1,.58.15.88.88,0,0,1,.22.53Z"/><path class="cls-2" d="M111.17,7.18a1,1,0,0,1-.28.34.63.63,0,0,1-.37.1,1,1,0,0,1-.5-.17l-.64-.38a5.35,5.35,0,0,0-.88-.38,3.69,3.69,0,0,0-1.18-.17,3.53,3.53,0,0,0-1.08.15,2.27,2.27,0,0,0-.78.41,1.65,1.65,0,0,0-.47.63,2.09,2.09,0,0,0-.15.81,1.4,1.4,0,0,0,.31.94,2.62,2.62,0,0,0,.83.64,7.71,7.71,0,0,0,1.18.47l1.36.45a12.85,12.85,0,0,1,1.35.55,4.65,4.65,0,0,1,1.18.79,3.58,3.58,0,0,1,.83,1.17,4.08,4.08,0,0,1,.31,1.69,5.49,5.49,0,0,1-.37,2,4.67,4.67,0,0,1-1.08,1.64A5.07,5.07,0,0,1,109,20a6.38,6.38,0,0,1-2.35.4,7.58,7.58,0,0,1-1.5-.15,7.86,7.86,0,0,1-1.42-.42,7.54,7.54,0,0,1-1.27-.66,6.13,6.13,0,0,1-1.06-.86l.87-1.42a.93.93,0,0,1,.29-.26.73.73,0,0,1,.38-.1,1.05,1.05,0,0,1,.59.23q.32.23.76.5a6,6,0,0,0,1,.5,4,4,0,0,0,1.42.23,2.91,2.91,0,0,0,2-.6,2.16,2.16,0,0,0,.69-1.72,1.6,1.6,0,0,0-.31-1,2.52,2.52,0,0,0-.83-.67,6.17,6.17,0,0,0-1.18-.46l-1.34-.41a11.62,11.62,0,0,1-1.34-.53,4.36,4.36,0,0,1-1.18-.8,3.65,3.65,0,0,1-.83-1.24,4.73,4.73,0,0,1-.31-1.83,4.41,4.41,0,0,1,1.36-3.16,4.94,4.94,0,0,1,1.63-1,6,6,0,0,1,2.22-.39,7.44,7.44,0,0,1,2.6.44,5.87,5.87,0,0,1,2,1.23Z"/><path class="cls-2" d="M116.91,10.12a5.9,5.9,0,0,1,1.45-1,4.22,4.22,0,0,1,1.86-.39,4,4,0,0,1,1.64.31,3.24,3.24,0,0,1,1.2.88,3.88,3.88,0,0,1,.73,1.35A5.76,5.76,0,0,1,124,13v7.19h-2.72V13a2.44,2.44,0,0,0-.47-1.6,1.78,1.78,0,0,0-1.44-.57,2.84,2.84,0,0,0-1.32.32,4.73,4.73,0,0,0-1.17.87v8.17h-2.72V3.84h2.72Z"/><path class="cls-2" d="M126.35,10.48A6.71,6.71,0,0,1,131,8.7a4.59,4.59,0,0,1,1.77.32,3.74,3.74,0,0,1,1.32.9,3.86,3.86,0,0,1,.82,1.38,5.33,5.33,0,0,1,.28,1.76v7.14H134a1.24,1.24,0,0,1-.59-.12.8.8,0,0,1-.33-.47l-.24-.81a9.81,9.81,0,0,1-.84.68,5,5,0,0,1-.85.49,4.55,4.55,0,0,1-.94.3,5.45,5.45,0,0,1-1.11.1,4.35,4.35,0,0,1-1.32-.19,2.91,2.91,0,0,1-1-.58,2.59,2.59,0,0,1-.68-1,3.39,3.39,0,0,1-.24-1.33,2.67,2.67,0,0,1,.14-.85,2.5,2.5,0,0,1,.47-.81,3.89,3.89,0,0,1,.84-.73,5.48,5.48,0,0,1,1.27-.59,11,11,0,0,1,1.76-.41,17.64,17.64,0,0,1,2.29-.19v-.66a2.47,2.47,0,0,0-.49-1.68,1.77,1.77,0,0,0-1.4-.55,3.33,3.33,0,0,0-1.1.15,4.55,4.55,0,0,0-.77.35l-.6.35a1.19,1.19,0,0,1-.6.15.78.78,0,0,1-.48-.15,1.25,1.25,0,0,1-.32-.35Zm6.24,4.9a15,15,0,0,0-2,.2,5.28,5.28,0,0,0-1.29.38,1.7,1.7,0,0,0-.69.54,1.34,1.34,0,0,0,.21,1.7,1.84,1.84,0,0,0,1.11.31,3.23,3.23,0,0,0,1.45-.3,4.3,4.3,0,0,0,1.2-.92Z"/><path class="cls-2" d="M140.36,10.87a4.87,4.87,0,0,1,1.26-1.59,2.68,2.68,0,0,1,1.72-.58,2.11,2.11,0,0,1,1.26.34l-.18,2a.53.53,0,0,1-.16.28.45.45,0,0,1-.28.08,3.23,3.23,0,0,1-.49-.06,3.8,3.8,0,0,0-.63-.06,2.27,2.27,0,0,0-.8.13,2,2,0,0,0-.63.38,2.61,2.61,0,0,0-.5.6,5.82,5.82,0,0,0-.4.8v7h-2.72V8.91h1.6a.88.88,0,0,1,.58.15.88.88,0,0,1,.22.53Z"/><path class="cls-2" d="M147.79,14.9a5.33,5.33,0,0,0,.31,1.5,3.06,3.06,0,0,0,.64,1,2.5,2.5,0,0,0,.94.62,3.43,3.43,0,0,0,1.21.2,3.73,3.73,0,0,0,1.14-.15,5.29,5.29,0,0,0,.84-.34l.63-.34a1.05,1.05,0,0,1,.52-.15.56.56,0,0,1,.51.25l.78,1a4.51,4.51,0,0,1-1,.89,5.67,5.67,0,0,1-1.17.57,6.4,6.4,0,0,1-1.25.3,8.93,8.93,0,0,1-1.23.09,6,6,0,0,1-2.19-.39,4.89,4.89,0,0,1-1.76-1.16,5.43,5.43,0,0,1-1.18-1.89,7.34,7.34,0,0,1-.43-2.62,6.25,6.25,0,0,1,.37-2.18,5.23,5.23,0,0,1,1.07-1.77,5,5,0,0,1,1.71-1.2,5.63,5.63,0,0,1,2.27-.44,5.53,5.53,0,0,1,2,.34,4.3,4.3,0,0,1,1.55,1,4.61,4.61,0,0,1,1,1.61,6,6,0,0,1,.37,2.18,1.77,1.77,0,0,1-.13.83.55.55,0,0,1-.51.21ZM153,13.26a3.29,3.29,0,0,0-.15-1,2.38,2.38,0,0,0-.45-.82,2.08,2.08,0,0,0-.75-.56,2.59,2.59,0,0,0-1.06-.2,2.52,2.52,0,0,0-1.86.67,3.3,3.3,0,0,0-.87,1.91Z"/><path class="cls-2" d="M21.53,5.2,16.16,3.73,15,1.19C14.83.77,14.63,0,14.13,0H7.93C7.43,0,7.2.79,7,1.19L5.89,3.74l-1.72.47V3.8a.09.09,0,0,0-.08-.1H1a.09.09,0,0,0-.08.1V5.11L.57,5.2A.81.81,0,0,0,0,6V19.77c0,.44.25.8.57.8h21c.31,0,.57-.36.57-.8V6A.8.8,0,0,0,21.53,5.2ZM11,18.77a7.15,7.15,0,0,1-7.15-7A7.26,7.26,0,0,1,7,5.69a7,7,0,0,1,3.83-1.22A7.19,7.19,0,0,1,15,5.69a7.14,7.14,0,0,1-4,13.07ZM21,8H18.65V6.21H21Z"/><path class="cls-3" d="M7.86,10.33,7,10a4.34,4.34,0,0,1,8-.21l-.84.39a3.41,3.41,0,0,0-6.26.16Z"/><polygon class="cls-3" points="15.53 9.38 14.9 11.6 13.29 9.95 15.53 9.38"/><path class="cls-4" d="M15.77,2.92"/><path class="cls-4" d="M12.68,7.35"/><path class="cls-4" d="M11.81,7.09"/><path class="cls-4" d="M9.52,21.38"/><path class="cls-4" d="M10.94,16.16"/><path class="cls-4" d="M11.84,16.11"/><path class="cls-4" d="M5,19.46"/><path class="cls-3" d="M11,15.93a4.35,4.35,0,0,1-3.94-2.52L7.93,13a3.41,3.41,0,0,0,6.26-.16l.86.34A4.31,4.31,0,0,1,11,15.93Z"/><polygon class="cls-3" points="6.53 13.81 7.16 11.59 8.77 13.24 6.53 13.81"/><path class="cls-4" d="M15.77,2.92"/><path class="cls-4" d="M12.68,7.36"/><path class="cls-4" d="M11.81,7.1"/><path class="cls-4" d="M9.52,21.39"/><path class="cls-4" d="M10.94,16.17"/><path class="cls-4" d="M11.84,16.12"/><path class="cls-4" d="M5,19.46"/></g></g></g></svg>