<svg id="Layer_1" data-name="Layer 1" xmlns="http://www.w3.org/2000/svg" viewBox="0 0 126.18 16.6"><defs><style>.cls-1{fill:#fff;}.cls-2{fill:#ffaf00;}</style></defs><title>logo-text</title><g id="Logo"><path class="cls-1" d="M9.73,7.18a1,1,0,0,1-.28.34,0.63,0.63,0,0,1-.37.1,1,1,0,0,1-.5-0.17L7.94,7.07a5.35,5.35,0,0,0-.88-0.38,3.69,3.69,0,0,0-1.18-.17,3.53,3.53,0,0,0-1.08.15A2.27,2.27,0,0,0,4,7.08a1.65,1.65,0,0,0-.47.63,2.09,2.09,0,0,0-.15.81,1.4,1.4,0,0,0,.31.94,2.62,2.62,0,0,0,.83.64,7.71,7.71,0,0,0,1.18.47L7.08,11a12.85,12.85,0,0,1,1.35.55,4.65,4.65,0,0,1,1.18.79,3.58,3.58,0,0,1,.83,1.17,4.08,4.08,0,0,1,.31,1.69,5.49,5.49,0,0,1-.37,2A4.67,4.67,0,0,1,9.3,18.86,5.07,5.07,0,0,1,7.6,20a6.38,6.38,0,0,1-2.35.4,7.58,7.58,0,0,1-1.5-.15,7.86,7.86,0,0,1-1.42-.42,7.54,7.54,0,0,1-1.27-.66A6.13,6.13,0,0,1,0,18.31l0.87-1.42a0.93,0.93,0,0,1,.29-0.26,0.73,0.73,0,0,1,.38-0.1,1,1,0,0,1,.59.23q0.32,0.23.76,0.5a6,6,0,0,0,1,.5A4,4,0,0,0,5.31,18a2.91,2.91,0,0,0,2-.6A2.16,2.16,0,0,0,8,15.67a1.6,1.6,0,0,0-.31-1A2.52,2.52,0,0,0,6.86,14a6.17,6.17,0,0,0-1.18-.46l-1.34-.41A11.62,11.62,0,0,1,3,12.6a4.36,4.36,0,0,1-1.18-.8A3.65,3.65,0,0,1,1,10.56,4.73,4.73,0,0,1,.68,8.73,4.41,4.41,0,0,1,2,5.57a4.94,4.94,0,0,1,1.63-1,6,6,0,0,1,2.22-.39,7.44,7.44,0,0,1,2.6.44,5.87,5.87,0,0,1,2,1.23Z" transform="translate(0 -3.84)"/><path class="cls-1" d="M15.5,10.12a5.9,5.9,0,0,1,1.45-1,4.22,4.22,0,0,1,1.86-.39A4,4,0,0,1,20.46,9a3.24,3.24,0,0,1,1.2.88,3.88,3.88,0,0,1,.73,1.35A5.76,5.76,0,0,1,22.63,13v7.19H19.91V13a2.44,2.44,0,0,0-.47-1.6A1.78,1.78,0,0,0,18,10.83a2.84,2.84,0,0,0-1.32.32,4.73,4.73,0,0,0-1.17.87v8.17H12.73V3.84h2.72Z" transform="translate(0 -3.84)"/><path class="cls-1" d="M34.94,8.91v11.3H33.28a0.64,0.64,0,0,1-.68-0.5l-0.19-.9A6.09,6.09,0,0,1,30.88,20a4.22,4.22,0,0,1-2,.44,4,4,0,0,1-1.64-.31,3.28,3.28,0,0,1-1.2-.89,3.88,3.88,0,0,1-.73-1.36,5.76,5.76,0,0,1-.25-1.73V8.91h2.72v7.18a2.41,2.41,0,0,0,.48,1.6,1.78,1.78,0,0,0,1.44.57A2.88,2.88,0,0,0,31,18a4.6,4.6,0,0,0,1.17-.87V8.91h2.75Z" transform="translate(0 -3.84)"/><path class="cls-1" d="M41.4,20.39a3,3,0,0,1-2.26-.83,3.21,3.21,0,0,1-.79-2.3V10.95H37.19a0.53,0.53,0,0,1-.37-0.14,0.56,0.56,0,0,1-.15-0.43V9.29L38.48,9,39,5.92a0.6,0.6,0,0,1,.21-0.34,0.62,0.62,0,0,1,.4-0.12h1.41V9h4.66l0.58-3.1a0.56,0.56,0,0,1,.61-0.46h1.4V9h3v1.94h-3v6.13a1.2,1.2,0,0,0,.26.83,0.91,0.91,0,0,0,.72.3,1.29,1.29,0,0,0,.42-0.06L50,18l0.23-.13a0.38,0.38,0,0,1,.2-0.06,0.31,0.31,0,0,1,.2.06,0.91,0.91,0,0,1,.17.18l0.82,1.32a4.11,4.11,0,0,1-1.37.75,5.08,5.08,0,0,1-1.6.25,3,3,0,0,1-2.27-.83,3.19,3.19,0,0,1-.79-2.3v-6.3H41.07v6.13a1.22,1.22,0,0,0,.26.83,0.89,0.89,0,0,0,.71.3,1.28,1.28,0,0,0,.42-0.06L42.73,18,43,17.87a0.38,0.38,0,0,1,.2-0.06,0.31,0.31,0,0,1,.2.06,0.94,0.94,0,0,1,.17.18l0.82,1.32a4.12,4.12,0,0,1-1.37.75A5.08,5.08,0,0,1,41.4,20.39Z" transform="translate(0 -3.84)"/><path class="cls-1" d="M55.13,14.9a5.33,5.33,0,0,0,.31,1.5,3.06,3.06,0,0,0,.64,1A2.5,2.5,0,0,0,57,18a3.43,3.43,0,0,0,1.21.2,3.73,3.73,0,0,0,1.14-.15,5.29,5.29,0,0,0,.84-0.34l0.63-.34a1.05,1.05,0,0,1,.52-0.15,0.56,0.56,0,0,1,.51.25l0.78,1a4.51,4.51,0,0,1-1,.89,5.67,5.67,0,0,1-1.17.57,6.4,6.4,0,0,1-1.25.3,8.93,8.93,0,0,1-1.23.09A6,6,0,0,1,55.79,20,4.89,4.89,0,0,1,54,18.84,5.43,5.43,0,0,1,52.85,17a7.34,7.34,0,0,1-.43-2.62,6.25,6.25,0,0,1,.37-2.18,5.23,5.23,0,0,1,1.07-1.77,5,5,0,0,1,1.71-1.2,5.63,5.63,0,0,1,2.27-.44,5.53,5.53,0,0,1,2,.34,4.3,4.3,0,0,1,1.55,1,4.61,4.61,0,0,1,1,1.61,6,6,0,0,1,.34,2.17,1.77,1.77,0,0,1-.13.83,0.55,0.55,0,0,1-.51.21h-7Zm5.19-1.64a3.29,3.29,0,0,0-.15-1,2.38,2.38,0,0,0-.45-0.82A2.08,2.08,0,0,0,59,10.88a2.59,2.59,0,0,0-1.06-.2,2.52,2.52,0,0,0-1.86.67,3.3,3.3,0,0,0-.87,1.91h5.14Z" transform="translate(0 -3.84)"/><path class="cls-1" d="M67.37,10.87a4.87,4.87,0,0,1,1.26-1.59,2.68,2.68,0,0,1,1.72-.58A2.11,2.11,0,0,1,71.61,9l-0.18,2a0.53,0.53,0,0,1-.16.28,0.45,0.45,0,0,1-.28.08,3.23,3.23,0,0,1-.49-0.06,3.8,3.8,0,0,0-.63-0.06,2.27,2.27,0,0,0-.8.13,2,2,0,0,0-.63.38,2.61,2.61,0,0,0-.5.6,5.82,5.82,0,0,0-.4.8v7H64.8V8.91h1.6a0.88,0.88,0,0,1,.58.15,0.88,0.88,0,0,1,.22.53Z" transform="translate(0 -3.84)"/><path class="cls-2" d="M81.9,7.18a1,1,0,0,1-.28.34,0.63,0.63,0,0,1-.37.1,1,1,0,0,1-.5-0.17l-0.64-.38a5.35,5.35,0,0,0-.88-0.38A3.69,3.69,0,0,0,78,6.52,3.53,3.53,0,0,0,77,6.67a2.27,2.27,0,0,0-.78.41,1.65,1.65,0,0,0-.47.63,2.09,2.09,0,0,0-.15.81,1.4,1.4,0,0,0,.31.94,2.62,2.62,0,0,0,.83.64,7.71,7.71,0,0,0,1.18.47L79.25,11a12.85,12.85,0,0,1,1.35.55,4.65,4.65,0,0,1,1.18.79,3.58,3.58,0,0,1,.83,1.17,4.08,4.08,0,0,1,.31,1.69,5.49,5.49,0,0,1-.37,2,4.67,4.67,0,0,1-1.08,1.64A5.07,5.07,0,0,1,79.73,20a6.38,6.38,0,0,1-2.35.4,7.58,7.58,0,0,1-1.5-.15,7.86,7.86,0,0,1-1.42-.42,7.54,7.54,0,0,1-1.27-.66,6.13,6.13,0,0,1-1.06-.86L73,16.89a0.93,0.93,0,0,1,.29-0.26,0.73,0.73,0,0,1,.38-0.1,1.05,1.05,0,0,1,.59.23q0.32,0.23.76,0.5a6,6,0,0,0,1,.5,4,4,0,0,0,1.42.23,2.91,2.91,0,0,0,2-.6,2.16,2.16,0,0,0,.69-1.72,1.6,1.6,0,0,0-.31-1A2.52,2.52,0,0,0,79,14a6.17,6.17,0,0,0-1.18-.46l-1.34-.41a11.62,11.62,0,0,1-1.34-.53A4.36,4.36,0,0,1,74,11.8a3.65,3.65,0,0,1-.83-1.24,4.73,4.73,0,0,1-.31-1.83,4.41,4.41,0,0,1,1.36-3.16,4.94,4.94,0,0,1,1.63-1A6,6,0,0,1,78,4.18a7.44,7.44,0,0,1,2.6.44,5.87,5.87,0,0,1,2,1.23Z" transform="translate(0 -3.84)"/><path class="cls-2" d="M87.64,10.12a5.9,5.9,0,0,1,1.45-1A4.22,4.22,0,0,1,91,8.73,4,4,0,0,1,92.59,9a3.24,3.24,0,0,1,1.2.88,3.88,3.88,0,0,1,.73,1.35A5.76,5.76,0,0,1,94.73,13v7.19H92V13a2.44,2.44,0,0,0-.47-1.6,1.78,1.78,0,0,0-1.44-.57,2.84,2.84,0,0,0-1.32.32,4.73,4.73,0,0,0-1.17.87v8.17H84.89V3.84h2.72Z" transform="translate(0 -3.84)"/><path class="cls-2" d="M97.08,10.48a6.71,6.71,0,0,1,4.65-1.78A4.59,4.59,0,0,1,103.5,9a3.74,3.74,0,0,1,1.32.9,3.86,3.86,0,0,1,.82,1.38,5.33,5.33,0,0,1,.28,1.76V20.2h-1.19a1.24,1.24,0,0,1-.59-0.12,0.8,0.8,0,0,1-.33-0.47l-0.24-.81a9.81,9.81,0,0,1-.84.68,5,5,0,0,1-.85.49,4.55,4.55,0,0,1-.94.3,5.45,5.45,0,0,1-1.11.1,4.35,4.35,0,0,1-1.32-.19,2.91,2.91,0,0,1-1-.58,2.59,2.59,0,0,1-.68-1,3.39,3.39,0,0,1-.24-1.33,2.67,2.67,0,0,1,.14-0.85,2.5,2.5,0,0,1,.47-0.81A3.89,3.89,0,0,1,98,14.88a5.48,5.48,0,0,1,1.27-.59,11,11,0,0,1,1.76-.41,17.64,17.64,0,0,1,2.29-.19V13a2.47,2.47,0,0,0-.49-1.68,1.77,1.77,0,0,0-1.4-.55,3.33,3.33,0,0,0-1.1.15,4.55,4.55,0,0,0-.77.35l-0.6.35a1.19,1.19,0,0,1-.6.15,0.78,0.78,0,0,1-.48-0.15,1.25,1.25,0,0,1-.32-0.35Zm6.24,4.9a15,15,0,0,0-2,.2A5.28,5.28,0,0,0,100,16a1.7,1.7,0,0,0-.69.54,1.34,1.34,0,0,0,.21,1.7,1.84,1.84,0,0,0,1.11.31,3.23,3.23,0,0,0,1.45-.3,4.3,4.3,0,0,0,1.2-.92V15.38Z" transform="translate(0 -3.84)"/><path class="cls-2" d="M111.09,10.87a4.87,4.87,0,0,1,1.26-1.59,2.68,2.68,0,0,1,1.72-.58,2.11,2.11,0,0,1,1.26.34l-0.18,2a0.53,0.53,0,0,1-.16.28,0.45,0.45,0,0,1-.28.08,3.23,3.23,0,0,1-.49-0.06,3.8,3.8,0,0,0-.63-0.06,2.27,2.27,0,0,0-.8.13,2,2,0,0,0-.63.38,2.61,2.61,0,0,0-.5.6,5.82,5.82,0,0,0-.4.8v7h-2.72V8.91h1.6a0.88,0.88,0,0,1,.58.15,0.88,0.88,0,0,1,.22.53Z" transform="translate(0 -3.84)"/><path class="cls-2" d="M118.52,14.9a5.33,5.33,0,0,0,.31,1.5,3.06,3.06,0,0,0,.64,1,2.5,2.5,0,0,0,.94.62,3.43,3.43,0,0,0,1.21.2,3.73,3.73,0,0,0,1.14-.15,5.29,5.29,0,0,0,.84-0.34l0.63-.34a1.05,1.05,0,0,1,.52-0.15,0.56,0.56,0,0,1,.51.25l0.78,1a4.51,4.51,0,0,1-1,.89,5.67,5.67,0,0,1-1.17.57,6.4,6.4,0,0,1-1.25.3,8.93,8.93,0,0,1-1.23.09A6,6,0,0,1,119.2,20a4.89,4.89,0,0,1-1.76-1.16,5.43,5.43,0,0,1-1.18-1.89,7.34,7.34,0,0,1-.43-2.62,6.25,6.25,0,0,1,.37-2.18,5.23,5.23,0,0,1,1.07-1.77A5,5,0,0,1,119,9.13a5.63,5.63,0,0,1,2.27-.44,5.53,5.53,0,0,1,2,.34,4.3,4.3,0,0,1,1.55,1,4.61,4.61,0,0,1,1,1.61,6,6,0,0,1,.37,2.18,1.77,1.77,0,0,1-.13.83,0.55,0.55,0,0,1-.51.21Zm5.21-1.64a3.29,3.29,0,0,0-.15-1,2.38,2.38,0,0,0-.45-0.82,2.08,2.08,0,0,0-.75-0.56,2.59,2.59,0,0,0-1.06-.2,2.52,2.52,0,0,0-1.86.67,3.3,3.3,0,0,0-.87,1.91h5.14Z" transform="translate(0 -3.84)"/></g></svg>